<mxfile host="Electron" agent="Mozilla/5.0 (Windows NT 10.0; Win64; x64) AppleWebKit/537.36 (KHTML, like Gecko) draw.io/24.7.17 Chrome/128.0.6613.36 Electron/32.0.1 Safari/537.36" version="24.7.17">
  <diagram name="Page-1" id="x-mT5EQh0T3Ss9dIXb5d">
    <mxGraphModel dx="1114" dy="664" grid="1" gridSize="10" guides="1" tooltips="1" connect="1" arrows="1" fold="1" page="1" pageScale="1" pageWidth="850" pageHeight="1100" math="0" shadow="0">
      <root>
        <mxCell id="0" />
        <mxCell id="1" parent="0" />
        <mxCell id="imwzmS-e4HNx55mXUJK1-6" value="" style="edgeStyle=orthogonalEdgeStyle;rounded=0;orthogonalLoop=1;jettySize=auto;html=1;" parent="1" source="imwzmS-e4HNx55mXUJK1-2" target="imwzmS-e4HNx55mXUJK1-5" edge="1">
          <mxGeometry relative="1" as="geometry" />
        </mxCell>
        <mxCell id="imwzmS-e4HNx55mXUJK1-2" value="START" style="rounded=1;whiteSpace=wrap;html=1;arcSize=50;" parent="1" vertex="1">
          <mxGeometry x="360" y="20" width="80" height="40" as="geometry" />
        </mxCell>
        <mxCell id="imwzmS-e4HNx55mXUJK1-4" style="edgeStyle=orthogonalEdgeStyle;rounded=0;orthogonalLoop=1;jettySize=auto;html=1;exitX=0.5;exitY=1;exitDx=0;exitDy=0;" parent="1" edge="1">
          <mxGeometry relative="1" as="geometry">
            <mxPoint x="400" y="230" as="sourcePoint" />
            <mxPoint x="400" y="230" as="targetPoint" />
          </mxGeometry>
        </mxCell>
        <mxCell id="imwzmS-e4HNx55mXUJK1-10" value="" style="edgeStyle=orthogonalEdgeStyle;rounded=0;orthogonalLoop=1;jettySize=auto;html=1;" parent="1" source="imwzmS-e4HNx55mXUJK1-5" target="imwzmS-e4HNx55mXUJK1-8" edge="1">
          <mxGeometry relative="1" as="geometry" />
        </mxCell>
        <mxCell id="imwzmS-e4HNx55mXUJK1-5" value="Input[1]:&lt;div&gt;#ใส่ค่า in1&lt;/div&gt;" style="shape=parallelogram;perimeter=parallelogramPerimeter;whiteSpace=wrap;html=1;fixedSize=1;" parent="1" vertex="1">
          <mxGeometry x="340" y="90" width="120" height="60" as="geometry" />
        </mxCell>
        <mxCell id="imwzmS-e4HNx55mXUJK1-11" value="" style="edgeStyle=orthogonalEdgeStyle;rounded=0;orthogonalLoop=1;jettySize=auto;html=1;" parent="1" source="imwzmS-e4HNx55mXUJK1-8" target="imwzmS-e4HNx55mXUJK1-9" edge="1">
          <mxGeometry relative="1" as="geometry" />
        </mxCell>
        <mxCell id="imwzmS-e4HNx55mXUJK1-8" value="Input[2]:&lt;div&gt;#ใส่ค่า in2&lt;/div&gt;" style="shape=parallelogram;perimeter=parallelogramPerimeter;whiteSpace=wrap;html=1;fixedSize=1;" parent="1" vertex="1">
          <mxGeometry x="340" y="190" width="120" height="60" as="geometry" />
        </mxCell>
        <mxCell id="imwzmS-e4HNx55mXUJK1-13" value="" style="edgeStyle=orthogonalEdgeStyle;rounded=0;orthogonalLoop=1;jettySize=auto;html=1;" parent="1" source="imwzmS-e4HNx55mXUJK1-9" target="imwzmS-e4HNx55mXUJK1-12" edge="1">
          <mxGeometry relative="1" as="geometry" />
        </mxCell>
        <mxCell id="imwzmS-e4HNx55mXUJK1-9" value="Input[3]:&lt;div&gt;#ใส่ค่า in3&lt;/div&gt;" style="shape=parallelogram;perimeter=parallelogramPerimeter;whiteSpace=wrap;html=1;fixedSize=1;" parent="1" vertex="1">
          <mxGeometry x="340" y="280" width="120" height="60" as="geometry" />
        </mxCell>
        <mxCell id="imwzmS-e4HNx55mXUJK1-46" value="" style="edgeStyle=orthogonalEdgeStyle;rounded=0;orthogonalLoop=1;jettySize=auto;html=1;" parent="1" source="imwzmS-e4HNx55mXUJK1-12" target="imwzmS-e4HNx55mXUJK1-45" edge="1">
          <mxGeometry relative="1" as="geometry" />
        </mxCell>
        <mxCell id="imwzmS-e4HNx55mXUJK1-52" value="เท็จ" style="edgeLabel;html=1;align=center;verticalAlign=middle;resizable=0;points=[];" parent="imwzmS-e4HNx55mXUJK1-46" vertex="1" connectable="0">
          <mxGeometry x="0.0109" y="-3" relative="1" as="geometry">
            <mxPoint as="offset" />
          </mxGeometry>
        </mxCell>
        <mxCell id="imwzmS-e4HNx55mXUJK1-47" value="" style="edgeStyle=orthogonalEdgeStyle;rounded=0;orthogonalLoop=1;jettySize=auto;html=1;" parent="1" source="imwzmS-e4HNx55mXUJK1-12" target="imwzmS-e4HNx55mXUJK1-38" edge="1">
          <mxGeometry relative="1" as="geometry" />
        </mxCell>
        <mxCell id="imwzmS-e4HNx55mXUJK1-53" value="จริง" style="edgeLabel;html=1;align=center;verticalAlign=middle;resizable=0;points=[];" parent="imwzmS-e4HNx55mXUJK1-47" vertex="1" connectable="0">
          <mxGeometry x="-0.1446" y="-1" relative="1" as="geometry">
            <mxPoint as="offset" />
          </mxGeometry>
        </mxCell>
        <mxCell id="imwzmS-e4HNx55mXUJK1-12" value="in1 &amp;gt; in2 &amp;gt; in3" style="rhombus;whiteSpace=wrap;html=1;" parent="1" vertex="1">
          <mxGeometry x="350.63" y="380" width="98.75" height="100" as="geometry" />
        </mxCell>
        <mxCell id="imwzmS-e4HNx55mXUJK1-93" value="" style="edgeStyle=orthogonalEdgeStyle;rounded=0;orthogonalLoop=1;jettySize=auto;html=1;" parent="1" source="imwzmS-e4HNx55mXUJK1-38" target="imwzmS-e4HNx55mXUJK1-92" edge="1">
          <mxGeometry relative="1" as="geometry" />
        </mxCell>
        <mxCell id="imwzmS-e4HNx55mXUJK1-38" value="แสดง #in1, in2, in3" style="shape=parallelogram;perimeter=parallelogramPerimeter;whiteSpace=wrap;html=1;fixedSize=1;" parent="1" vertex="1">
          <mxGeometry x="130" y="400" width="150" height="60" as="geometry" />
        </mxCell>
        <mxCell id="imwzmS-e4HNx55mXUJK1-51" value="" style="edgeStyle=orthogonalEdgeStyle;rounded=0;orthogonalLoop=1;jettySize=auto;html=1;" parent="1" source="imwzmS-e4HNx55mXUJK1-45" target="imwzmS-e4HNx55mXUJK1-50" edge="1">
          <mxGeometry relative="1" as="geometry" />
        </mxCell>
        <mxCell id="imwzmS-e4HNx55mXUJK1-54" value="จริง" style="edgeLabel;html=1;align=center;verticalAlign=middle;resizable=0;points=[];" parent="imwzmS-e4HNx55mXUJK1-51" vertex="1" connectable="0">
          <mxGeometry x="-0.1604" y="-2" relative="1" as="geometry">
            <mxPoint as="offset" />
          </mxGeometry>
        </mxCell>
        <mxCell id="imwzmS-e4HNx55mXUJK1-62" value="" style="edgeStyle=orthogonalEdgeStyle;rounded=0;orthogonalLoop=1;jettySize=auto;html=1;" parent="1" source="imwzmS-e4HNx55mXUJK1-45" target="imwzmS-e4HNx55mXUJK1-61" edge="1">
          <mxGeometry relative="1" as="geometry" />
        </mxCell>
        <mxCell id="imwzmS-e4HNx55mXUJK1-83" value="เท็จ" style="edgeLabel;html=1;align=center;verticalAlign=middle;resizable=0;points=[];" parent="imwzmS-e4HNx55mXUJK1-62" vertex="1" connectable="0">
          <mxGeometry x="0.0668" y="-1" relative="1" as="geometry">
            <mxPoint as="offset" />
          </mxGeometry>
        </mxCell>
        <mxCell id="imwzmS-e4HNx55mXUJK1-45" value="in1 &amp;gt; in3 &amp;gt; in2" style="rhombus;whiteSpace=wrap;html=1;" parent="1" vertex="1">
          <mxGeometry x="350.62" y="540" width="98.75" height="100" as="geometry" />
        </mxCell>
        <mxCell id="imwzmS-e4HNx55mXUJK1-94" value="" style="edgeStyle=orthogonalEdgeStyle;rounded=0;orthogonalLoop=1;jettySize=auto;html=1;" parent="1" source="imwzmS-e4HNx55mXUJK1-50" target="imwzmS-e4HNx55mXUJK1-92" edge="1">
          <mxGeometry relative="1" as="geometry" />
        </mxCell>
        <mxCell id="imwzmS-e4HNx55mXUJK1-50" value="แสดง #&lt;span style=&quot;background-color: initial;&quot;&gt;in1, in3, in2&lt;/span&gt;" style="shape=parallelogram;perimeter=parallelogramPerimeter;whiteSpace=wrap;html=1;fixedSize=1;" parent="1" vertex="1">
          <mxGeometry x="120" y="560" width="146.24" height="60" as="geometry" />
        </mxCell>
        <mxCell id="imwzmS-e4HNx55mXUJK1-59" value="" style="edgeStyle=orthogonalEdgeStyle;rounded=0;orthogonalLoop=1;jettySize=auto;html=1;entryX=0.5;entryY=0;entryDx=0;entryDy=0;" parent="1" source="imwzmS-e4HNx55mXUJK1-61" target="imwzmS-e4HNx55mXUJK1-65" edge="1">
          <mxGeometry relative="1" as="geometry">
            <mxPoint x="400" y="850" as="targetPoint" />
          </mxGeometry>
        </mxCell>
        <mxCell id="imwzmS-e4HNx55mXUJK1-60" value="เท็จ" style="edgeLabel;html=1;align=center;verticalAlign=middle;resizable=0;points=[];" parent="imwzmS-e4HNx55mXUJK1-59" vertex="1" connectable="0">
          <mxGeometry x="0.0109" y="-3" relative="1" as="geometry">
            <mxPoint as="offset" />
          </mxGeometry>
        </mxCell>
        <mxCell id="imwzmS-e4HNx55mXUJK1-61" value="&lt;div&gt;&lt;span style=&quot;background-color: initial;&quot;&gt;in2 &amp;gt; in1 &amp;gt; in3&lt;/span&gt;&lt;br&gt;&lt;/div&gt;" style="rhombus;whiteSpace=wrap;html=1;" parent="1" vertex="1">
          <mxGeometry x="350.63" y="689" width="98.75" height="100" as="geometry" />
        </mxCell>
        <mxCell id="imwzmS-e4HNx55mXUJK1-63" value="" style="edgeStyle=orthogonalEdgeStyle;rounded=0;orthogonalLoop=1;jettySize=auto;html=1;entryX=0.5;entryY=0;entryDx=0;entryDy=0;" parent="1" source="imwzmS-e4HNx55mXUJK1-65" target="imwzmS-e4HNx55mXUJK1-68" edge="1">
          <mxGeometry relative="1" as="geometry">
            <mxPoint x="400" y="1040" as="targetPoint" />
          </mxGeometry>
        </mxCell>
        <mxCell id="imwzmS-e4HNx55mXUJK1-64" value="เท็จ" style="edgeLabel;html=1;align=center;verticalAlign=middle;resizable=0;points=[];" parent="imwzmS-e4HNx55mXUJK1-63" vertex="1" connectable="0">
          <mxGeometry x="0.0109" y="-3" relative="1" as="geometry">
            <mxPoint as="offset" />
          </mxGeometry>
        </mxCell>
        <mxCell id="imwzmS-e4HNx55mXUJK1-65" value="&lt;div&gt;&lt;span style=&quot;background-color: initial;&quot;&gt;in2 &amp;gt; in3 &amp;gt; in1&lt;/span&gt;&lt;br&gt;&lt;/div&gt;" style="rhombus;whiteSpace=wrap;html=1;" parent="1" vertex="1">
          <mxGeometry x="350.63" y="851" width="98.75" height="100" as="geometry" />
        </mxCell>
        <mxCell id="imwzmS-e4HNx55mXUJK1-66" value="" style="edgeStyle=orthogonalEdgeStyle;rounded=0;orthogonalLoop=1;jettySize=auto;html=1;entryX=0.5;entryY=0;entryDx=0;entryDy=0;" parent="1" target="imwzmS-e4HNx55mXUJK1-82" edge="1">
          <mxGeometry relative="1" as="geometry">
            <mxPoint x="400" y="1169" as="targetPoint" />
            <mxPoint x="400" y="1060.994936708861" as="sourcePoint" />
          </mxGeometry>
        </mxCell>
        <mxCell id="imwzmS-e4HNx55mXUJK1-67" value="เท็จ" style="edgeLabel;html=1;align=center;verticalAlign=middle;resizable=0;points=[];" parent="imwzmS-e4HNx55mXUJK1-66" vertex="1" connectable="0">
          <mxGeometry x="0.0109" y="-3" relative="1" as="geometry">
            <mxPoint y="16" as="offset" />
          </mxGeometry>
        </mxCell>
        <mxCell id="imwzmS-e4HNx55mXUJK1-68" value="in3 &amp;gt; in1 &amp;gt; in2" style="rhombus;whiteSpace=wrap;html=1;" parent="1" vertex="1">
          <mxGeometry x="350.63" y="1002" width="98.75" height="100" as="geometry" />
        </mxCell>
        <mxCell id="imwzmS-e4HNx55mXUJK1-73" value="" style="edgeStyle=orthogonalEdgeStyle;rounded=0;orthogonalLoop=1;jettySize=auto;html=1;" parent="1" target="imwzmS-e4HNx55mXUJK1-75" edge="1">
          <mxGeometry relative="1" as="geometry">
            <mxPoint x="351" y="739" as="sourcePoint" />
          </mxGeometry>
        </mxCell>
        <mxCell id="imwzmS-e4HNx55mXUJK1-74" value="จริง" style="edgeLabel;html=1;align=center;verticalAlign=middle;resizable=0;points=[];" parent="imwzmS-e4HNx55mXUJK1-73" vertex="1" connectable="0">
          <mxGeometry x="-0.1604" y="-2" relative="1" as="geometry">
            <mxPoint as="offset" />
          </mxGeometry>
        </mxCell>
        <mxCell id="imwzmS-e4HNx55mXUJK1-106" value="" style="edgeStyle=orthogonalEdgeStyle;rounded=0;orthogonalLoop=1;jettySize=auto;html=1;" parent="1" source="imwzmS-e4HNx55mXUJK1-75" target="imwzmS-e4HNx55mXUJK1-95" edge="1">
          <mxGeometry relative="1" as="geometry" />
        </mxCell>
        <mxCell id="imwzmS-e4HNx55mXUJK1-75" value="แสดง #in2, in1, in3" style="shape=parallelogram;perimeter=parallelogramPerimeter;whiteSpace=wrap;html=1;fixedSize=1;" parent="1" vertex="1">
          <mxGeometry x="120" y="709" width="146.24" height="60" as="geometry" />
        </mxCell>
        <mxCell id="imwzmS-e4HNx55mXUJK1-76" value="" style="edgeStyle=orthogonalEdgeStyle;rounded=0;orthogonalLoop=1;jettySize=auto;html=1;" parent="1" target="imwzmS-e4HNx55mXUJK1-78" edge="1">
          <mxGeometry relative="1" as="geometry">
            <mxPoint x="350.62" y="901" as="sourcePoint" />
          </mxGeometry>
        </mxCell>
        <mxCell id="imwzmS-e4HNx55mXUJK1-77" value="จริง" style="edgeLabel;html=1;align=center;verticalAlign=middle;resizable=0;points=[];" parent="imwzmS-e4HNx55mXUJK1-76" vertex="1" connectable="0">
          <mxGeometry x="-0.1604" y="-2" relative="1" as="geometry">
            <mxPoint as="offset" />
          </mxGeometry>
        </mxCell>
        <mxCell id="imwzmS-e4HNx55mXUJK1-105" value="" style="edgeStyle=orthogonalEdgeStyle;rounded=0;orthogonalLoop=1;jettySize=auto;html=1;" parent="1" source="imwzmS-e4HNx55mXUJK1-78" target="imwzmS-e4HNx55mXUJK1-97" edge="1">
          <mxGeometry relative="1" as="geometry" />
        </mxCell>
        <mxCell id="imwzmS-e4HNx55mXUJK1-78" value="แสดง #&lt;span style=&quot;background-color: initial;&quot;&gt;in2, in3, in1&lt;/span&gt;" style="shape=parallelogram;perimeter=parallelogramPerimeter;whiteSpace=wrap;html=1;fixedSize=1;" parent="1" vertex="1">
          <mxGeometry x="119.62" y="871" width="146.24" height="60" as="geometry" />
        </mxCell>
        <mxCell id="imwzmS-e4HNx55mXUJK1-79" value="" style="edgeStyle=orthogonalEdgeStyle;rounded=0;orthogonalLoop=1;jettySize=auto;html=1;" parent="1" target="imwzmS-e4HNx55mXUJK1-81" edge="1">
          <mxGeometry relative="1" as="geometry">
            <mxPoint x="350.62" y="1052" as="sourcePoint" />
          </mxGeometry>
        </mxCell>
        <mxCell id="imwzmS-e4HNx55mXUJK1-80" value="จริง" style="edgeLabel;html=1;align=center;verticalAlign=middle;resizable=0;points=[];" parent="imwzmS-e4HNx55mXUJK1-79" vertex="1" connectable="0">
          <mxGeometry x="-0.1604" y="-2" relative="1" as="geometry">
            <mxPoint as="offset" />
          </mxGeometry>
        </mxCell>
        <mxCell id="imwzmS-e4HNx55mXUJK1-104" value="" style="edgeStyle=orthogonalEdgeStyle;rounded=0;orthogonalLoop=1;jettySize=auto;html=1;" parent="1" source="imwzmS-e4HNx55mXUJK1-81" target="imwzmS-e4HNx55mXUJK1-99" edge="1">
          <mxGeometry relative="1" as="geometry" />
        </mxCell>
        <mxCell id="imwzmS-e4HNx55mXUJK1-81" value="แสดง #in3, in1, in2" style="shape=parallelogram;perimeter=parallelogramPerimeter;whiteSpace=wrap;html=1;fixedSize=1;" parent="1" vertex="1">
          <mxGeometry x="119.62" y="1022" width="146.24" height="60" as="geometry" />
        </mxCell>
        <mxCell id="imwzmS-e4HNx55mXUJK1-103" style="edgeStyle=orthogonalEdgeStyle;rounded=0;orthogonalLoop=1;jettySize=auto;html=1;entryX=1;entryY=0.5;entryDx=0;entryDy=0;" parent="1" source="imwzmS-e4HNx55mXUJK1-82" target="imwzmS-e4HNx55mXUJK1-101" edge="1">
          <mxGeometry relative="1" as="geometry" />
        </mxCell>
        <mxCell id="imwzmS-e4HNx55mXUJK1-108" value="" style="edgeStyle=orthogonalEdgeStyle;rounded=0;orthogonalLoop=1;jettySize=auto;html=1;" parent="1" source="imwzmS-e4HNx55mXUJK1-82" target="imwzmS-e4HNx55mXUJK1-88" edge="1">
          <mxGeometry relative="1" as="geometry" />
        </mxCell>
        <mxCell id="imwzmS-e4HNx55mXUJK1-82" value="&lt;div style=&quot;text-align: start;&quot;&gt;&lt;span style=&quot;background-color: initial;&quot;&gt;แสดง #&lt;/span&gt;&lt;span style=&quot;background-color: initial; text-align: center;&quot;&gt;in3, in2, in1&lt;/span&gt;&lt;span style=&quot;background-color: initial; text-wrap: nowrap; color: rgba(0, 0, 0, 0); font-family: monospace; font-size: 0px;&quot;&gt;%3CmxGraphModel%3E%3Croot%3E%3CmxCell%20id%3D%220%22%2F%3E%3CmxCell%20id%3D%221%22%20parent%3D%220%22%2F%3E%3CmxCell%20id%3D%222%22%20value%3D%22%E0%B9%81%E0%B8%AA%E0%B8%94%E0%B8%87%20%23in3%2C%20in1%2C%20in2%22%20style%3D%22shape%3Dparallelogram%3Bperimeter%3DparallelogramPerimeter%3BwhiteSpace%3Dwrap%3Bhtml%3D1%3BfixedSize%3D1%3B%22%20vertex%3D%221%22%20parent%3D%221%22%3E%3CmxGeometry%20x%3D%22119.62%22%20y%3D%221022%22%20width%3D%22146.24%22%20height%3D%2260%22%20as%3D%22geometry%22%2F%3E%3C%2FmxCell%3E%3C%2Froot%3E%3C%2FmxGraphModel%3E&lt;/span&gt;&lt;span style=&quot;background-color: initial; text-wrap: nowrap; font-size: 0px;&quot;&gt;&lt;font face=&quot;monospace&quot; color=&quot;rgba(0, 0, 0, 0)&quot;&gt;in3, in2, in1&lt;/font&gt;&lt;/span&gt;&lt;/div&gt;" style="shape=parallelogram;perimeter=parallelogramPerimeter;whiteSpace=wrap;html=1;fixedSize=1;" parent="1" vertex="1">
          <mxGeometry x="326.88" y="1180" width="146.24" height="60" as="geometry" />
        </mxCell>
        <mxCell id="imwzmS-e4HNx55mXUJK1-86" value="END" style="rounded=1;whiteSpace=wrap;html=1;arcSize=50;" parent="1" vertex="1">
          <mxGeometry x="360.01" y="1380" width="80" height="40" as="geometry" />
        </mxCell>
        <mxCell id="imwzmS-e4HNx55mXUJK1-109" value="" style="edgeStyle=orthogonalEdgeStyle;rounded=0;orthogonalLoop=1;jettySize=auto;html=1;" parent="1" source="imwzmS-e4HNx55mXUJK1-88" target="imwzmS-e4HNx55mXUJK1-86" edge="1">
          <mxGeometry relative="1" as="geometry" />
        </mxCell>
        <mxCell id="imwzmS-e4HNx55mXUJK1-88" value="" style="ellipse;whiteSpace=wrap;html=1;aspect=fixed;" parent="1" vertex="1">
          <mxGeometry x="385" y="1300" width="30" height="30" as="geometry" />
        </mxCell>
        <mxCell id="imwzmS-e4HNx55mXUJK1-96" value="" style="edgeStyle=orthogonalEdgeStyle;rounded=0;orthogonalLoop=1;jettySize=auto;html=1;" parent="1" source="imwzmS-e4HNx55mXUJK1-92" target="imwzmS-e4HNx55mXUJK1-95" edge="1">
          <mxGeometry relative="1" as="geometry" />
        </mxCell>
        <mxCell id="imwzmS-e4HNx55mXUJK1-92" value="" style="ellipse;whiteSpace=wrap;html=1;" parent="1" vertex="1">
          <mxGeometry x="40" y="575" width="30" height="30" as="geometry" />
        </mxCell>
        <mxCell id="imwzmS-e4HNx55mXUJK1-98" value="" style="edgeStyle=orthogonalEdgeStyle;rounded=0;orthogonalLoop=1;jettySize=auto;html=1;" parent="1" source="imwzmS-e4HNx55mXUJK1-95" target="imwzmS-e4HNx55mXUJK1-97" edge="1">
          <mxGeometry relative="1" as="geometry" />
        </mxCell>
        <mxCell id="imwzmS-e4HNx55mXUJK1-95" value="" style="ellipse;whiteSpace=wrap;html=1;" parent="1" vertex="1">
          <mxGeometry x="40" y="724" width="30" height="30" as="geometry" />
        </mxCell>
        <mxCell id="imwzmS-e4HNx55mXUJK1-100" value="" style="edgeStyle=orthogonalEdgeStyle;rounded=0;orthogonalLoop=1;jettySize=auto;html=1;" parent="1" source="imwzmS-e4HNx55mXUJK1-97" target="imwzmS-e4HNx55mXUJK1-99" edge="1">
          <mxGeometry relative="1" as="geometry" />
        </mxCell>
        <mxCell id="imwzmS-e4HNx55mXUJK1-97" value="" style="ellipse;whiteSpace=wrap;html=1;" parent="1" vertex="1">
          <mxGeometry x="40" y="886" width="30" height="30" as="geometry" />
        </mxCell>
        <mxCell id="imwzmS-e4HNx55mXUJK1-102" value="" style="edgeStyle=orthogonalEdgeStyle;rounded=0;orthogonalLoop=1;jettySize=auto;html=1;" parent="1" source="imwzmS-e4HNx55mXUJK1-99" target="imwzmS-e4HNx55mXUJK1-101" edge="1">
          <mxGeometry relative="1" as="geometry" />
        </mxCell>
        <mxCell id="imwzmS-e4HNx55mXUJK1-99" value="" style="ellipse;whiteSpace=wrap;html=1;" parent="1" vertex="1">
          <mxGeometry x="40" y="1037" width="30" height="30" as="geometry" />
        </mxCell>
        <mxCell id="imwzmS-e4HNx55mXUJK1-107" style="edgeStyle=orthogonalEdgeStyle;rounded=0;orthogonalLoop=1;jettySize=auto;html=1;entryX=0;entryY=0.5;entryDx=0;entryDy=0;" parent="1" source="imwzmS-e4HNx55mXUJK1-101" target="imwzmS-e4HNx55mXUJK1-88" edge="1">
          <mxGeometry relative="1" as="geometry">
            <Array as="points">
              <mxPoint x="55" y="1315" />
            </Array>
          </mxGeometry>
        </mxCell>
        <mxCell id="imwzmS-e4HNx55mXUJK1-101" value="" style="ellipse;whiteSpace=wrap;html=1;" parent="1" vertex="1">
          <mxGeometry x="40" y="1195" width="30" height="30" as="geometry" />
        </mxCell>
      </root>
    </mxGraphModel>
  </diagram>
</mxfile>
